<?xml version="1.0" standalone="no"?>
<!DOCTYPE svg PUBLIC "-//W3C//DTD SVG 20010904//EN"
 "http://www.w3.org/TR/2001/REC-SVG-20010904/DTD/svg10.dtd">
<svg version="1.0" xmlns="http://www.w3.org/2000/svg"
 width="800.000000pt" height="800.000000pt" viewBox="0 0 800.000000 800.000000"
 preserveAspectRatio="xMidYMid meet">
<metadata>
Created by potrace 1.11, written by Peter Selinger 2001-2013
</metadata>
<g transform="translate(0.000000,800.000000) scale(0.100000,-0.100000)"
fill="#000000" stroke="none">
<path d="M0 4000 l0 -4000 4000 0 4000 0 0 4000 0 4000 -4000 0 -4000 0 0
-4000z m4000 3255 l355 -355 -1010 -1010 -1010 -1010 490 -490 490 -490 872
872 873 873 354 -354 c278 -278 353 -358 346 -370 -5 -9 -396 -403 -869 -876
l-861 -860 887 -887 888 -888 -420 -420 c-231 -231 -424 -420 -430 -420 -13 0
-4175 4162 -4175 4175 0 10 2850 2865 2860 2865 3 0 165 -160 360 -355z"/>
</g>
</svg>
